<svg width="182" height="182" viewBox="0 0 182 182" fill="none" xmlns="http://www.w3.org/2000/svg">
<path d="M62.7903 18.9624C67.5678 19.1076 72.1937 19.9418 76.6754 21.4661H77.1228C77.4262 21.6101 77.6537 21.7694 77.8053 21.9135C79.4812 22.4519 81.0662 23.0586 82.5828 23.8927L85.4645 25.1819C86.602 25.7886 87.967 26.9185 88.7253 27.3811C89.4837 27.8285 90.3178 28.2911 91.0003 28.8143C99.4254 22.3761 109.655 18.8877 120.196 18.9624C124.981 18.9624 129.759 19.6385 134.301 21.1627C162.291 30.2627 172.377 60.9752 163.952 87.8202C159.174 101.538 151.364 114.059 141.134 124.288C126.49 138.469 110.421 151.058 93.1237 161.902L91.2278 163.047L89.2562 161.826C71.8979 151.058 55.7378 138.469 40.9579 124.213C30.7962 113.983 22.9778 101.538 18.1245 87.8202C9.55533 60.9752 19.6412 30.2627 47.9346 21.0035C50.1337 20.2451 52.4012 19.7143 54.6762 19.4186H55.5862C57.7171 19.1076 59.8328 18.9624 61.9562 18.9624H62.7903ZM130.358 42.9269C127.249 41.8576 123.836 43.5336 122.699 46.7186C121.637 49.9036 123.305 53.3919 126.49 54.5218C131.351 56.3418 134.604 61.1269 134.604 66.4276V66.6627C134.46 68.3993 134.984 70.0752 136.045 71.3644C137.107 72.6536 138.7 73.4043 140.368 73.5636C143.477 73.4801 146.131 70.9852 146.359 67.7926V66.8902C146.586 56.266 140.148 46.6427 130.358 42.9269Z" fill="url(#paint0_linear_703_7)"/>
<defs>
<linearGradient id="paint0_linear_703_7" x1="137.5" y1="22.5" x2="67.5" y2="147.5" gradientUnits="userSpaceOnUse">
<stop stop-color="#EF4444" stop-opacity="0.8"/>
<stop offset="1" stop-color="#EF4444" stop-opacity="0.1"/>
</linearGradient>
</defs>
</svg>
