<svg width="182" height="182" viewBox="0 0 182 182" fill="none" xmlns="http://www.w3.org/2000/svg">
<path d="M162.552 19.5801C158.758 15.687 153.144 14.2366 147.91 15.7633L25.844 51.2598C20.3211 52.7942 16.4065 57.1988 15.3519 62.7943C14.2747 68.489 18.0375 75.7181 22.9536 78.741L61.1209 102.199C65.0355 104.604 70.0881 104.001 73.3275 100.734L117.033 56.756C119.233 54.4659 122.875 54.4659 125.075 56.756C127.275 58.9698 127.275 62.5576 125.075 64.8477L81.2933 108.833C78.0463 112.092 77.4394 117.169 79.8291 121.108L103.15 159.658C105.881 164.238 110.585 166.833 115.743 166.833C116.35 166.833 117.033 166.833 117.64 166.757C123.557 165.994 128.261 161.948 130.006 156.223L166.193 34.3131C167.786 29.1222 166.345 23.4733 162.552 19.5801Z" fill="url(#paint0_linear_803_2)"/>
<defs>
<linearGradient id="paint0_linear_803_2" x1="54.9792" y1="39.8126" x2="149.771" y2="157.354" gradientUnits="userSpaceOnUse">
<stop stop-color="white"/>
<stop offset="1" stop-color="#B3B3B3"/>
</linearGradient>
</defs>
</svg>
